 <svg
            
            version="1.1"
            id="_x32_"
            xmlns="http://www.w3.org/2000/svg"
            xmlns:xlink="http://www.w3.org/1999/xlink"
            viewBox="-51.2 -51.2 614.40 614.40"
            xml:space="preserve"
            width="70px"
            height="70px"
            fill="#ffffff"
            stroke="#ffffff"
            stroke-width="0.00512"
            transform="rotate(180)matrix(1, 0, 0, -1, 0, 0)"
          >
            <g id="SVGRepo_bgCarrier" stroke-width="0"></g>
            <g
              id="SVGRepo_tracerCarrier"
              stroke-linecap="round"
              stroke-linejoin="round"
              stroke="#00"
              stroke-width="46.08"
            >
              <style type="text/css">
                .st0 {
                  fill: #000000;
                }
              </style>
              <g>
                <polygon
                  class="st0"
                  points="0,160.777 97.693,209.795 97.693,182.352 0,126.59 "
                ></polygon>
                <polygon
                  class="st0"
                  points="0,420.907 97.693,365.145 97.693,337.702 0,386.719 "
                ></polygon>
                <rect
                  x="134.716"
                  y="142.368"
                  class="st0"
                  width="52.544"
                  height="262.76"
                ></rect>
                <path
                  class="st0"
                  d="M497.038,106.056c-9.184-9.218-22.087-14.975-36.134-14.962H344.13c-14.047-0.013-26.95,5.744-36.135,14.962 c-9.211,9.185-14.975,22.088-14.962,36.134v34.339h-16.844l-67.374-34.161v262.76l67.374-34.161h189.978 c25.311,0,45.833-20.522,45.833-45.833v-71.599v-77.007V142.19C512.014,128.143,506.25,115.241,497.038,106.056z M471.575,176.529 H333.458V142.19c0.014-3.02,1.165-5.553,3.126-7.546c1.994-1.961,4.534-3.119,7.546-3.126h116.774 c3.013,0.007,5.553,1.165,7.546,3.126c1.961,1.994,3.112,4.527,3.125,7.546V176.529z"
                ></path>
              </g>
            </g>
            <g id="SVGRepo_iconCarrier">
              <style type="text/css">
                .st0 {
                  fill: #000000;
                }
              </style>
              <g>
                <polygon
                  class="st0"
                  points="0,160.777 97.693,209.795 97.693,182.352 0,126.59 "
                ></polygon>
                <polygon
                  class="st0"
                  points="0,420.907 97.693,365.145 97.693,337.702 0,386.719 "
                ></polygon>
                <rect
                  x="134.716"
                  y="142.368"
                  class="st0"
                  width="52.544"
                  height="262.76"
                ></rect>
                <path
                  class="st0"
                  d="M497.038,106.056c-9.184-9.218-22.087-14.975-36.134-14.962H344.13c-14.047-0.013-26.95,5.744-36.135,14.962 c-9.211,9.185-14.975,22.088-14.962,36.134v34.339h-16.844l-67.374-34.161v262.76l67.374-34.161h189.978 c25.311,0,45.833-20.522,45.833-45.833v-71.599v-77.007V142.19C512.014,128.143,506.25,115.241,497.038,106.056z M471.575,176.529 H333.458V142.19c0.014-3.02,1.165-5.553,3.126-7.546c1.994-1.961,4.534-3.119,7.546-3.126h116.774 c3.013,0.007,5.553,1.165,7.546,3.126c1.961,1.994,3.112,4.527,3.125,7.546V176.529z"
                ></path>
              </g>
            </g>
          </svg>